<?xml version="1.0" standalone="no"?><!DOCTYPE svg PUBLIC "-//W3C//DTD SVG 1.1//EN" "http://www.w3.org/Graphics/SVG/1.1/DTD/svg11.dtd"><svg class="icon" width="200px" height="200.00px" viewBox="0 0 1024 1024" version="1.1" xmlns="http://www.w3.org/2000/svg"><path d="M609 518.8c-11.6-6-23.6-10.9-35.7-14.6-1.3-0.4-1.4-2.1-0.2-2.7 83.2-37.2 126.9-147.4 49.2-248.6l-0.3-0.3c-124.2-95.3-261.8-8-261.8 110.7 0 61.5 36.9 114.5 89.7 138.2 1.2 0.5 1.1 2.3-0.2 2.7-12.2 3.8-24.1 8.6-35.7 14.6-29.4 15.2-55.8 36.9-78.4 64.4-47.6 58-72.9 135.7-70.8 217.7 0 0.4 0.1 0.7 0.4 1 18.1 19.9 40.8 7.4 40.8-10.5 0-140.8 92.2-255.3 205.4-255.3 115.7 0 209.4 119.5 205.3 264.5 0 0.3 0.2 0.8 0.4 1 18.2 20.3 41 7.7 41-10.2 0-78.5-25.2-152.4-70.9-208.2-22.4-27.5-48.7-49.2-78.2-64.4z m-178-75.2c-89.8-117.2 43.7-250.7 160.9-160.9l0.3 0.3c89.8 117.2-43.7 250.7-160.9 160.9l-0.3-0.3z"  /><path d="M325.9 507.5c11.4 0 20.6-9.2 20.6-20.6 0-11.4-9.2-20.6-20.6-20.6h-2c-40.6-1.1-73.3-34.4-73.3-75.2 0-44.3 38.5-79.8 83.9-74.8 0.3 0 0.9-0.1 1.1-0.3 20.9-18.2 8.3-41.4-9.8-41.4-64.2 0-116.5 52.3-116.5 116.5 0 36.6 16.9 69.3 43.4 90.6 0.8 0.7 0.7 1.9-0.2 2.4-0.2 0.1-0.5 0.2-0.7 0.3-22.3 11.5-42.2 27.9-59.2 48.7-36.2 44.2-55.3 103.5-53.1 165.8 0 0.3 0.1 0.7 0.4 0.9 18.1 19.8 40.7 7.3 40.7-10.5 0-99.5 64.1-180.5 143.3-181.8h2zM831.4 533.1c-17-20.8-37-37.2-59.2-48.7-0.2-0.1-0.5-0.2-0.7-0.3-0.9-0.5-1.1-1.8-0.2-2.4 26.5-21.4 43.4-54.1 43.4-90.6 0-67.5-57.7-121.8-126.4-116.1-0.3 0-0.6 0.2-0.9 0.4-19.4 18.1-6.9 40.5 10.8 40.5 41.5 0 75.3 33.8 75.3 75.3 0 40.8-32.7 74.2-73.3 75.2h-2c-11.4 0-20.6 9.2-20.6 20.6 0 11.4 9.2 20.6 20.6 20.6h1.9c81.6 1.3 147.2 87.4 143.2 190.9 0 0.3 0.2 0.8 0.4 1 18.2 20.4 41.1 7.8 41.1-10.1-0.2-58.9-19.1-114.4-53.4-156.3z"  /></svg>