<?xml version="1.0" standalone="no"?><!DOCTYPE svg PUBLIC "-//W3C//DTD SVG 1.1//EN" "http://www.w3.org/Graphics/SVG/1.1/DTD/svg11.dtd"><svg class="icon" width="200px" height="200.00px" viewBox="0 0 1024 1024" version="1.1" xmlns="http://www.w3.org/2000/svg"><path d="M872.3 359.8c-19.7-46.6-47.9-88.4-83.8-124.3-35.9-35.9-77.7-64.1-124.3-83.8C616 131.3 564.8 121 512 121s-104 10.3-152.2 30.7c-46.6 19.7-88.4 47.9-124.3 83.8s-64.1 77.7-83.8 124.3C131.3 408 121 459.2 121 512s10.3 104 30.7 152.2c19.7 46.6 47.9 88.4 83.8 124.3 35.9 35.9 77.7 64.1 124.3 83.8C408 892.7 459.2 903 512 903s104-10.3 152.2-30.7c46.6-19.7 88.4-47.9 124.3-83.8 35.9-35.9 64.1-77.7 83.8-124.3C892.7 616 903 564.8 903 512s-10.3-104-30.7-152.2z m-345-0.8c45.7-1.2 90.9-7.9 134.6-19.7 0.8-0.2 1.6 0.2 1.8 1 16.6 50 26 102.5 27.6 155.9 0 0.8-0.7 1.5-1.5 1.5H527.3c-0.8 0-1.5-0.7-1.5-1.5V360.5c0-0.8 0.6-1.4 1.5-1.5z m-1.5-30V165.6c0-0.9 0.7-1.5 1.6-1.5 13.9 0.6 27.6 2 41.1 4.2 0.4 0.1 0.7 0.3 0.9 0.5 35.1 43 63.1 90.8 83.4 141.6 0.3 0.8-0.1 1.8-1 2-40.4 10.7-82.2 16.8-124.4 18-0.9 0.1-1.6-0.5-1.6-1.4z m-30 1.5c-41.9-1.2-83.3-7.3-123.4-18-0.9-0.2-1.3-1.2-1-2 20.3-50.9 48.3-98.7 83.3-141.7 0.2-0.3 0.6-0.5 0.9-0.5 13.2-2.2 26.6-3.6 40.2-4.2 0.9 0 1.6 0.6 1.6 1.5V329c-0.1 0.8-0.8 1.5-1.6 1.5z m1.5 30v135.8c0 0.8-0.7 1.5-1.5 1.5H334.3c-0.8 0-1.5-0.7-1.5-1.5 1.6-53.3 11-105.8 27.6-155.9 0.3-0.8 1-1.2 1.8-1 43.4 11.8 88.3 18.4 133.6 19.7 0.9-0.1 1.5 0.6 1.5 1.4zM302.8 497.7H165.6c-0.9 0-1.5-0.7-1.5-1.6 3.5-76.9 32-147.3 77.5-203.4 0.5-0.6 1.2-0.7 1.9-0.4 28.4 15.1 58 27.8 88.5 37.9 0.8 0.3 1.2 1.1 0.9 1.9-17.5 52.9-27.1 108-28.7 164.2 0 0.8-0.6 1.4-1.4 1.4z m1.4 30c1.5 56.2 11.1 111.3 28.7 164.2 0.3 0.8-0.2 1.6-0.9 1.9-30.5 10.1-60.1 22.7-88.5 37.9-0.6 0.3-1.4 0.2-1.9-0.4-45.6-56.1-74.1-126.5-77.5-203.4 0-0.9 0.6-1.6 1.5-1.6h137.1c0.9 0 1.5 0.6 1.5 1.4z m30.1-1.4h161.5c0.8 0 1.5 0.7 1.5 1.5v135.8c0 0.8-0.6 1.5-1.5 1.5-45.4 1.3-90.3 7.9-133.7 19.7-0.8 0.2-1.6-0.2-1.8-1-16.6-50-26-102.5-27.6-155.9 0-0.9 0.7-1.6 1.6-1.6z m163 168.7v163.4c0 0.9-0.7 1.5-1.6 1.5-13.6-0.6-27-2-40.2-4.2-0.4-0.1-0.7-0.3-0.9-0.5-35-43-63-90.8-83.3-141.6-0.3-0.8 0.1-1.8 1-2 40.2-10.7 81.6-16.7 123.5-18 0.8-0.1 1.5 0.6 1.5 1.4z m30-1.5c42.2 1.2 83.9 7.3 124.4 18 0.9 0.2 1.3 1.2 1 2-20.3 50.8-48.3 98.6-83.4 141.6-0.2 0.3-0.6 0.5-0.9 0.5-13.5 2.2-27.2 3.6-41.1 4.2-0.9 0-1.6-0.6-1.6-1.5V695c0.1-0.9 0.8-1.5 1.6-1.5z m-1.5-30V527.7c0-0.8 0.7-1.5 1.5-1.5h162.4c0.8 0 1.5 0.7 1.5 1.5a539.9 539.9 0 0 1-27.6 155.9c-0.3 0.8-1 1.2-1.8 1-43.7-11.8-88.9-18.5-134.6-19.7-0.8 0-1.4-0.6-1.4-1.4z m195.4-137.2h137.1c0.9 0 1.5 0.7 1.5 1.6-3.5 76.9-31.9 147.3-77.5 203.4-0.5 0.6-1.2 0.7-1.9 0.4-28.4-15.1-58-27.8-88.5-37.8-0.8-0.3-1.2-1.1-0.9-1.9 17.5-52.9 27.1-108 28.7-164.2 0.1-0.9 0.7-1.5 1.5-1.5z m-1.4-30c-1.5-56.2-11.1-111.3-28.6-164.2-0.3-0.8 0.2-1.6 0.9-1.9 30.4-10.1 60-22.7 88.5-37.9 0.6-0.3 1.4-0.2 1.9 0.4 45.6 56.1 74.1 126.5 77.5 203.4 0 0.9-0.6 1.6-1.5 1.6H721.2c-0.8 0-1.4-0.6-1.4-1.4z m40.5-225.5c-25.1 12.9-51.2 23.8-78 32.7-0.8 0.2-1.6-0.1-1.9-0.9-16.8-42.7-38.6-83-65-120.4-0.8-1.2 0.3-2.7 1.7-2.3 55 17.4 104.2 48.2 143.6 88.5 0.7 0.7 0.5 1.9-0.4 2.4z m-351.7-88.6c-26.5 37.4-48.2 77.7-65 120.4-0.3 0.7-1.1 1.1-1.9 0.9-26.8-8.8-52.9-19.7-78-32.6-0.9-0.5-1.1-1.7-0.4-2.4 39.5-40.3 88.6-71 143.6-88.5 1.4-0.5 2.6 1.1 1.7 2.2z m-144.9 571c25.1-12.9 51.2-23.8 78-32.7 0.8-0.2 1.6 0.1 1.9 0.9 16.8 42.7 38.6 83 65 120.4 0.8 1.2-0.3 2.7-1.7 2.3-55-17.4-104.2-48.2-143.6-88.5-0.7-0.7-0.5-2 0.4-2.4z m351.7 88.6c26.4-37.3 48.2-77.6 65-120.3 0.3-0.7 1.1-1.1 1.9-0.9 26.8 8.8 52.9 19.7 78 32.6 0.9 0.5 1.1 1.7 0.4 2.4-39.5 40.3-88.6 71-143.6 88.5-1.4 0.4-2.5-1.2-1.7-2.3z" /></svg>