<?xml version="1.0" standalone="no"?><!DOCTYPE svg PUBLIC "-//W3C//DTD SVG 1.1//EN" "http://www.w3.org/Graphics/SVG/1.1/DTD/svg11.dtd"><svg class="icon" width="200px" height="200.00px" viewBox="0 0 1024 1024" version="1.1" xmlns="http://www.w3.org/2000/svg"><path d="M512 788.5c80 0 247.9-313.2 247.9-450.1 0-136.9-111-247.9-247.9-247.9s-247.9 111-247.9 247.9S432 788.5 512 788.5zM334.9 444.8c-14.7-43.2-22.8-81-22.8-106.4 0-78.6 45.1-150.3 123-185.5 0 0 0.1 0 0.1-0.1 80-30.2 162.6-11.3 218.1 44.2 37.8 37.8 58.5 88 58.5 141.3 0 25.4-8.1 63.2-22.8 106.4-14.6 43.1-35 89.8-59 135.2-23.8 45.1-49 84.8-72.8 114.8-23.3 29.4-38.1 40.3-44.5 44.1-0.5 0.3-1.2 0.3-1.7 0-6.5-3.8-21.2-14.6-44.5-44.1-23.8-30-49-69.7-72.8-114.8-23.8-45.3-44.2-92-58.8-135.1z"  /><path d="M583 409.1c78.5-103.5-38.3-220.3-141.7-141.7l-0.3 0.3C362.4 371.2 479.2 488 582.7 409.4l0.3-0.3z m-106.8-35.3c-39.6-51.9 19.4-110.9 71.3-71.3l0.3 0.3c39.6 51.9-19.4 110.9-71.3 71.3-0.1 0-0.2-0.1-0.3-0.3zM755.6 699.1c-11.9-5.9-26.3-1-32.2 10.9-5.9 11.9-1 26.3 10.9 32.2 32.2 16 50.7 34.5 50.7 50.8 0 19.7-27.5 42.7-71.8 60.1-53.3 20.9-124.8 32.4-201.2 32.4-76.4 0-147.9-11.5-201.2-32.5-44.3-17.4-71.8-40.4-71.8-60.1 0-16.4 18.6-34.9 51-50.9 11.9-5.9 16.8-20.3 10.9-32.1-5.9-11.9-20.3-16.8-32.1-10.9-64.2 31.7-77.7 68.6-77.7 94 0 15.6 5.4 39.2 31 63 17.2 15.9 41.1 30 71.2 41.8 58.8 23.1 136.5 35.8 218.8 35.8s160-12.7 218.8-35.8c30.1-11.8 54-25.9 71.2-41.8 25.6-23.8 31-47.4 31-63-0.1-25.4-13.5-62.2-77.5-93.9z"  /></svg>