<?xml version="1.0" standalone="no"?><!DOCTYPE svg PUBLIC "-//W3C//DTD SVG 1.1//EN" "http://www.w3.org/Graphics/SVG/1.1/DTD/svg11.dtd"><svg class="icon" width="200px" height="200.00px" viewBox="0 0 1024 1024" version="1.1" xmlns="http://www.w3.org/2000/svg"><path d="M333.7 96H155.4C122.6 96 96 122.6 96 155.4v178.3c0 32.8 26.6 59.4 59.4 59.4h178.3c32.8 0 59.4-26.6 59.4-59.4V155.4c0-32.8-26.6-59.4-59.4-59.4zM155.4 333.7V155.4h178.3v178.3H155.4zM868.6 96H690.3c-32.8 0-59.4 26.6-59.4 59.4v178.3c0 32.8 26.6 59.4 59.4 59.4h178.3c32.8 0 59.4-26.6 59.4-59.4V155.4c0-32.8-26.6-59.4-59.4-59.4zM690.3 333.7V155.4h178.3v178.3H690.3zM868.6 630.9H690.3c-32.8 0-59.4 26.6-59.4 59.4v178.3c0 32.8 26.6 59.4 59.4 59.4h178.3c32.8 0 59.4-26.6 59.4-59.4V690.3c0-32.8-26.6-59.4-59.4-59.4zM690.3 868.6V690.3h178.3v178.3H690.3zM333.7 630.9H155.4c-32.8 0-59.4 26.6-59.4 59.4v178.3c0 32.8 26.6 59.4 59.4 59.4h178.3c32.8 0 59.4-26.6 59.4-59.4V690.3c0-32.8-26.6-59.4-59.4-59.4zM155.4 868.6V690.3h178.3v178.3H155.4zM898.3 482.3H125.7c-16.4 0-29.7 13.3-29.7 29.7s13.3 29.7 29.7 29.7h772.6c16.4 0 29.7-13.3 29.7-29.7s-13.3-29.7-29.7-29.7zM512 96c-16.4 0-29.7 13.3-29.7 29.7v237.7c0 16.4 13.3 29.7 29.7 29.7s29.7-13.3 29.7-29.7V125.7c0-16.4-13.3-29.7-29.7-29.7zM462.5 630.9c-16.4 0-29.7 13.3-29.7 29.7v237.7c0 16.4 13.3 29.7 29.7 29.7s29.7-13.3 29.7-29.7V660.6c0-16.4-13.3-29.7-29.7-29.7zM561.5 630.9c-16.4 0-29.7 13.3-29.7 29.7v237.7c0 16.4 13.3 29.7 29.7 29.7s29.7-13.3 29.7-29.7V660.6c0-16.4-13.3-29.7-29.7-29.7z" /></svg>