<?xml version="1.0" standalone="no"?><!DOCTYPE svg PUBLIC "-//W3C//DTD SVG 1.1//EN" "http://www.w3.org/Graphics/SVG/1.1/DTD/svg11.dtd"><svg class="icon" width="200px" height="200.00px" viewBox="0 0 1024 1024" version="1.1" xmlns="http://www.w3.org/2000/svg"><path d="M786.285714 425.071543 786.285714 154.678857 512 0 237.714286 154.678857l0 270.392686L0 559.107657 0 869.357714 274.285714 1024l237.714286-133.999543L749.714286 1024l274.285714-154.642286L1024 559.107657 786.285714 425.071543zM749.714286 672.570514l-163.927771-92.4288L749.714286 487.749486l163.927771 92.392229L749.714286 672.570514zM310.857143 238.036114l164.571429 92.785371 0 184.8576-164.571429-92.785371L310.857143 238.036114zM548.571429 515.679086 548.571429 330.821486l164.571429-92.785371L713.142857 422.893714 548.571429 515.679086zM438.213486 580.143543 274.285714 672.570514l-163.927771-92.4288L274.285714 487.749486 438.213486 580.143543zM310.857143 735.285029l164.571429-92.785371 0 184.821029-164.571429 92.750629L310.857143 735.285029zM675.893029 175.749486 512 268.143543l-163.893029-92.392229L512 83.320686 675.893029 175.749486zM73.142857 642.499657l164.571429 92.785371 0 184.786286-164.571429-92.750629L73.142857 642.499657zM548.571429 642.499657l164.571429 92.785371 0 184.786286-164.571429-92.750629L548.571429 642.499657zM786.285714 920.071314 786.285714 735.285029l164.571429-92.785371 0 184.821029L786.285714 920.071314z" /></svg>