<?xml version="1.0" standalone="no"?><!DOCTYPE svg PUBLIC "-//W3C//DTD SVG 1.1//EN" "http://www.w3.org/Graphics/SVG/1.1/DTD/svg11.dtd"><svg class="icon" width="200px" height="200.00px" viewBox="0 0 1024 1024" version="1.1" xmlns="http://www.w3.org/2000/svg"><path d="M881.275903 77.29748 142.72205 77.29748c-38.690184 0-70.172199 31.469736-70.172199 70.160943l0 729.095433c0 38.690184 31.483038 70.148663 70.172199 70.148663l738.553852 0c38.691207 0 70.173223-31.458479 70.173223-70.148663l0-729.095433C951.449125 108.767216 919.96711 77.29748 881.275903 77.29748zM899.48973 876.553856c0 10.017144-8.157797 18.187221-18.213827 18.187221L142.72205 894.741078c-10.042727 0-18.212804-8.170077-18.212804-18.187221l0-729.095433c0-10.042727 8.169053-18.213827 18.212804-18.213827l738.553852 0c10.05603 0 18.213827 8.170077 18.213827 18.213827L899.48973 876.553856zM802.516118 209.682603c0 10.042727-8.170077 18.213827-18.213827 18.213827L239.683383 227.89643c-10.018168 0-18.187221-8.170077-18.187221-18.213827l0-43.685965-51.959396 0 0 43.685965c0 38.691207 31.456433 70.174246 70.14764 70.174246l544.619932 0c38.677904 0 70.160943-31.484062 70.160943-70.174246l0-43.685965-51.947116 0L802.518165 209.682603zM682.919253 409.289734l-341.866135 0c-38.690184 0-70.173223 31.483038-70.173223 70.172199l0 164.92319c0 38.677904 31.484062 70.134337 70.173223 70.134337l341.866135 0c38.690184 0 70.173223-31.456433 70.173223-70.134337L753.092475 479.461933C753.092475 440.772772 721.609437 409.289734 682.919253 409.289734zM701.145359 644.385123c0 10.017144-8.182356 18.187221-18.226107 18.187221l-341.866135 0c-10.042727 0-18.213827-8.170077-18.213827-18.187221L322.839291 479.461933c0-10.055007 8.170077-18.226107 18.213827-18.226107l341.866135 0c10.042727 0 18.226107 8.170077 18.226107 18.226107L701.145359 644.385123zM727.112778 753.639432 296.859593 753.639432c-14.347776 0-25.979698 11.618619-25.979698 25.980721 0 14.349823 11.630898 25.980721 25.979698 25.980721l430.253184 0c14.362102 0 25.980721-11.629875 25.980721-25.980721C753.092475 765.257028 741.47488 753.639432 727.112778 753.639432z" /></svg>