<?xml version="1.0" standalone="no"?><!DOCTYPE svg PUBLIC "-//W3C//DTD SVG 1.1//EN" "http://www.w3.org/Graphics/SVG/1.1/DTD/svg11.dtd"><svg class="icon" width="200px" height="200.00px" viewBox="0 0 1024 1024" version="1.1" xmlns="http://www.w3.org/2000/svg"><path d="M460.1 701.2c-47.3 0-93.1-9.3-136.3-27.5-41.7-17.6-79.1-42.9-111.3-75s-57.4-69.6-75-111.3c-18.3-43.2-27.5-89-27.5-136.3 0-47.3 9.3-93.1 27.5-136.3 17.6-41.7 42.9-79.1 75-111.3s69.6-57.4 111.3-75C367 10.2 412.8 1 460.1 1s93.1 9.3 136.3 27.5c41.7 17.6 79.1 42.9 111.3 75s57.4 69.6 75 111.3c18.3 43.2 27.5 89 27.5 136.3 0 47.3-9.3 93.1-27.5 136.3-17.6 41.7-42.9 79.1-75 111.3s-69.6 57.4-111.3 75c-43.2 18.2-89 27.5-136.3 27.5z m0-636.3C302.3 64.9 174 193.3 174 351.1s128.4 286.1 286.1 286.1 286.1-128.4 286.1-286.1S617.9 64.9 460.1 64.9zM893.7 698.9c-6.2 0-12.5-1.8-18-5.6-14.6-10-18.3-29.9-8.3-44.5 60.1-87.9 91.9-190.8 91.9-297.8 0-105.8-31.2-207.9-90.2-295.2-9.9-14.6-6-34.5 8.6-44.4 14.6-9.9 34.5-6 44.4 8.6 66.2 97.9 101.1 212.4 101.1 331 0 119.9-35.6 235.3-103.1 333.9-6.1 9.1-16.2 14-26.4 14z"  /><path d="M36.1 1023.2c-3.4 0-6.8-0.5-10.2-1.7C9.2 1015.9 0.1 997.8 5.8 981c16-47.6 39.2-92.3 69.1-132.9 29.5-40.1 64.8-75.3 105-104.7 83.5-61.1 182.5-93.4 286.3-93.4 103.8 0 202.8 32.3 286.3 93.4 40.2 29.4 75.5 64.6 105 104.7 29.9 40.6 53.1 85.3 69.1 132.9 5.6 16.8-3.4 34.9-20.2 40.5-16.8 5.6-34.9-3.4-40.5-20.2C808.2 829.5 647.6 714 466.1 714 284.7 714 124 829.5 66.4 1001.4c-4.5 13.4-16.9 21.8-30.3 21.8z"  /></svg>