<?xml version="1.0" standalone="no"?><!DOCTYPE svg PUBLIC "-//W3C//DTD SVG 1.1//EN" "http://www.w3.org/Graphics/SVG/1.1/DTD/svg11.dtd"><svg class="icon" width="200px" height="200.00px" viewBox="0 0 1024 1024" version="1.1" xmlns="http://www.w3.org/2000/svg"><path d="M716 290.1312l0 40.2688-409.6 0 0-40.2688L224 290.1312 224 896l576 0L800 290.1312 716 290.1312zM304.8 410.0224l409.6 0 0 77.1776-409.6 0L304.8 410.0224zM594.3936 813.6l-288 0 0-80 288 0L594.3936 813.6zM716.4032 654.208l-409.6 0L306.8032 572.8l409.6 0L716.4032 654.208zM429.9968 128l164 0 0 120.8-164 0 0-120.8ZM347.5968 209.6l328.8064 0 0 80.5312-328.8064 0 0-80.5312Z" /></svg>