<?xml version="1.0" standalone="no"?><!DOCTYPE svg PUBLIC "-//W3C//DTD SVG 1.1//EN" "http://www.w3.org/Graphics/SVG/1.1/DTD/svg11.dtd"><svg class="icon" width="200px" height="200.00px" viewBox="0 0 1024 1024" version="1.1" xmlns="http://www.w3.org/2000/svg"><path d="M513 703.6c-6.2 0-12.5-1.8-17.8-5.4L18.4 377.7c-8.9-6-14.2-16-14.2-26.7s5.4-20.7 14.3-26.6L495.3 9.1C506 2 520 2 530.7 9.1l476.8 315.4c8.9 5.9 14.3 15.9 14.3 26.6 0 10.7-5.3 20.7-14.2 26.7L530.8 698.1c-5.3 3.7-11.6 5.5-17.8 5.5zM93.9 351.4L513 633l419.1-281.6L513 74.1 93.9 351.4z"  /><path d="M802.7 710.1c-17.7 0-32-14.3-32-32v-111L496.4 380c-14.6-10-18.4-29.9-8.4-44.5 10-14.6 29.9-18.4 44.5-8.4l288.2 196.7c8.7 6 14 15.9 14 26.4V678c0 17.7-14.4 32.1-32 32.1z"  /><path d="M802.1 1021.6c-52.7 0-95.6-42.9-95.6-95.6V741.6c0-52.7 42.9-95.6 95.6-95.6 52.7 0 95.6 42.9 95.6 95.6V926c0 52.7-42.9 95.6-95.6 95.6z m0-311.5c-17.4 0-31.6 14.2-31.6 31.6V926c0 17.4 14.2 31.6 31.6 31.6 17.4 0 31.6-14.2 31.6-31.6V741.6c0-17.4-14.2-31.5-31.6-31.5zM473.7 1023.3c-74.8 0-145.2-29.1-198.1-82.1s-82.1-123.3-82.1-198.1V609c0-17.7 14.3-32 32-32s32 14.3 32 32v134.1c0 119.2 97 216.2 216.2 216.2 33.6 0 65.8-7.5 95.7-22.3 15.8-7.8 35-1.3 42.9 14.5 7.8 15.8 1.3 35-14.5 42.9-38.7 19.2-80.5 28.9-124.1 28.9z"  /></svg>