<?xml version="1.0" standalone="no"?><!DOCTYPE svg PUBLIC "-//W3C//DTD SVG 1.1//EN" "http://www.w3.org/Graphics/SVG/1.1/DTD/svg11.dtd"><svg class="icon" width="200px" height="200.00px" viewBox="0 0 1024 1024" version="1.1" xmlns="http://www.w3.org/2000/svg"><path d="M951.4 483.2c-45.2-69.7-182.8-242-439.2-242-261 0-396.2 173-440 242.4-10.9 17.4-10.9 39.4 0 56.7 43.8 69.4 179 242.4 440 242.4 257.7 0 394.5-172.1 439.3-241.9 11.4-17.5 11.3-40-0.1-57.6zM512.2 726.8c-229.6 0-349.8-149-391.7-214.8 41.9-65.8 162.1-214.8 391.7-214.8 225.6 0 348.2 149 391.2 214.9-42.7 65.8-164.4 214.7-391.2 214.7z"  /><path d="M512 316c-108.2 0-196 87.7-196 196 0 108.2 87.8 196 196 196s196-87.8 196-196-87.8-196-196-196z m0 336c-77.2 0-140-62.8-140-140s62.8-140 140-140 140 62.8 140 140-62.8 140-140 140z"  /><path d="M512 512m-56 0a56 56 0 1 0 112 0 56 56 0 1 0-112 0Z"  /></svg>