<?xml version="1.0" standalone="no"?><!DOCTYPE svg PUBLIC "-//W3C//DTD SVG 1.1//EN" "http://www.w3.org/Graphics/SVG/1.1/DTD/svg11.dtd"><svg class="icon" width="200px" height="200.00px" viewBox="0 0 1024 1024" version="1.1" xmlns="http://www.w3.org/2000/svg"><path d="M957.3 263H798.5c-0.8 0-1.4-0.5-1.6-1.3C786.1 220 748.1 189 703 189s-83.1 31-93.9 72.7c-0.2 0.7-0.9 1.3-1.6 1.3H66.7c-0.9 0-1.7 0.8-1.7 1.7v44.6c0 0.9 0.8 1.7 1.7 1.7H608c0.8 0 1.4 0.5 1.6 1.2 11.5 40.8 49 70.8 93.4 70.8s81.9-30 93.4-70.8c0.2-0.7 0.9-1.2 1.6-1.2h159.3c0.9 0 1.7-0.8 1.7-1.7v-44.6c0-0.9-0.8-1.7-1.7-1.7z m-218.7 59c-52.1 39.8-111.4-19.5-71.6-71.6l0.3-0.3c52.1-39.8 111.4 19.5 71.6 71.6 0 0.1-0.1 0.2-0.3 0.3zM957.3 715H798.5c-0.8 0-1.4-0.5-1.6-1.3C786.1 672 748.1 641 703 641s-83.1 31-93.9 72.7c-0.2 0.7-0.9 1.3-1.6 1.3H66.7c-0.9 0-1.7 0.8-1.7 1.7v44.6c0 0.9 0.8 1.7 1.7 1.7H608c0.8 0 1.4 0.5 1.6 1.2 11.5 40.8 49 70.8 93.4 70.8s81.9-30 93.4-70.8c0.2-0.7 0.9-1.2 1.6-1.2h159.3c0.9 0 1.7-0.8 1.7-1.7v-44.6c0-0.9-0.8-1.7-1.7-1.7z m-218.7 59c-52.1 39.8-111.4-19.5-71.6-71.6l0.3-0.3c52.1-39.8 111.4 19.5 71.6 71.6 0 0.1-0.1 0.2-0.3 0.3zM957.3 488H418.5c-0.8 0-1.4-0.5-1.6-1.3C406.1 445 368.1 414 323 414s-83.1 31-93.9 72.7c-0.2 0.7-0.9 1.3-1.6 1.3H66.7c-0.9 0-1.7 0.8-1.7 1.7v44.6c0 0.9 0.8 1.7 1.7 1.7H228c0.8 0 1.4 0.5 1.6 1.2 11.5 40.8 49 70.8 93.4 70.8s81.9-30 93.4-70.8c0.2-0.7 0.9-1.2 1.6-1.2h539.3c0.9 0 1.7-0.8 1.7-1.7v-44.6c0-0.9-0.8-1.7-1.7-1.7z m-598.7 59c-52.1 39.8-111.4-19.5-71.6-71.6l0.3-0.3c52.1-39.8 111.4 19.5 71.6 71.6 0 0.1-0.1 0.2-0.3 0.3z" /></svg>