<?xml version="1.0" standalone="no"?><!DOCTYPE svg PUBLIC "-//W3C//DTD SVG 1.1//EN" "http://www.w3.org/Graphics/SVG/1.1/DTD/svg11.dtd"><svg class="icon" width="200px" height="197.11px" viewBox="0 0 1039 1024" version="1.1" xmlns="http://www.w3.org/2000/svg"><path d="M738.608088 169.914878m-28.408003 0a27.761 27.761 0 1 0 56.816007 0 27.761 27.761 0 1 0-56.816007 0Z"  /><path d="M823.832098 169.914878m-28.408003 0a27.761 27.761 0 1 0 56.816007 0 27.761 27.761 0 1 0-56.816007 0Z"  /><path d="M909.057131 169.914878m-28.408003 0a27.761 27.761 0 1 0 56.816007 0 27.761 27.761 0 1 0-56.816007 0Z"  /><path d="M942.515151 56.281841 80.173994 56.281841c-44.279483 0-80.173994 35.894512-80.173994 80.173994l0 748.710167c0 44.277436 35.894512 80.173994 80.173994 80.173994l862.34218 0c44.277436 0 80.173994-35.896558 80.173994-80.173994L1022.690168 136.455835C1022.689145 92.175329 986.792587 56.281841 942.515151 56.281841zM965.873138 878.457206c0 16.60519-13.46057 30.065759-30.065759 30.065759L86.87972 908.522965c-16.604166 0-30.064736-13.46057-30.064736-30.065759L56.814983 285.202601c0-16.604166 13.46057-30.064736 30.064736-30.064736l848.927659 0c16.60519 0 30.065759 13.46057 30.065759 30.064736L965.873138 878.457206zM965.873138 196.664102c0 16.60519-13.46057 30.065759-30.065759 30.065759L86.87972 226.729861c-16.604166 0-30.064736-13.46057-30.064736-30.065759l0-53.502541c0-16.604166 13.46057-30.064736 30.064736-30.064736l848.927659 0c16.60519 0 30.065759 13.46057 30.065759 30.064736L965.873138 196.664102z"  /><path d="M653.220349 494.465648c-8.109702-70.741157-68.156286-125.694747-141.070946-125.694747-0.271176 0-0.536212 0.017396-0.807389 0.021489-0.270153-0.004093-0.535189-0.021489-0.805342-0.021489-72.916706 0-132.963291 54.953589-141.071969 125.694747-0.096191 0.663102-0.162706 1.339508-0.162706 2.030239 0 7.844665 6.358825 14.204513 14.204513 14.204513 7.264451 0 13.243629-5.457292 14.089903-12.493545l0.019443 0.002047c6.272867-56.824193 54.42454-101.029998 112.921839-101.029998 0.270153 0 0.535189 0.020466 0.805342 0.020466 0.271176 0 0.536212-0.020466 0.807389-0.020466 58.495252 0 106.646925 44.205804 112.920816 101.029998l0.020466-0.002047c0.845251 7.036253 6.825452 12.493545 14.08888 12.493545 7.845689 0 14.205537-6.359848 14.205537-14.204513C653.383054 495.804133 653.316539 495.128751 653.220349 494.465648z"  /><path d="M568.159044 638.535905c0 7.844665-6.359848 14.204513-14.205537 14.204513l-85.22401 0c-7.843642 0-14.202467-6.359848-14.202467-14.204513l0 0c0-7.843642 6.359848-14.202467 14.202467-14.202467l85.22401 0C561.799196 624.333438 568.159044 630.692263 568.159044 638.535905L568.159044 638.535905z"  /><path d="M710.198038 595.926458c0-31.378661-25.437345-56.81703-56.816007-56.81703s-56.81703 25.438369-56.81703 56.81703l0.002047 0 0 42.690288 0.004093 0c0.042979 7.807826 6.383384 14.124695 14.199397 14.124695 7.818059 0 14.157441-6.316869 14.20042-14.124695l0.004093 0 0-42.690288c0-15.688307 12.719696-28.408003 28.41005-28.408003 15.688307 0 28.40698 12.719696 28.40698 28.408003 0 15.690354-12.718673 28.409027-28.40698 28.409027l-0.002047 0 0.002047 73.196069c0 6.641257-5.385661 12.025894-12.026918 12.025894L381.327892 709.557448c-6.641257 0-12.025894-5.384637-12.025894-12.025894l0.002047-73.196069-0.002047 0c-15.688307 0-28.408003-12.718673-28.408003-28.409027 0-15.688307 12.719696-28.408003 28.408003-28.408003 15.690354 0 28.409027 12.719696 28.409027 28.408003l0 42.690288 0.004093 0c0.042979 7.807826 6.382361 14.124695 14.20042 14.124695 7.816013 0 14.155395-6.316869 14.198374-14.124695l0.004093 0 0-42.690288 0.002047 0c0-31.378661-25.437345-56.81703-56.816007-56.81703s-56.81703 25.438369-56.81703 56.81703c0 21.025872 11.431354 39.372729 28.409027 49.196469l-0.002047 62.777789c0 16.606213 13.46057 30.064736 30.065759 30.064736l26.751271 0 0 14.316054c0 7.843642 6.359848 14.20349 14.204513 14.20349 7.843642 0 14.202467-6.359848 14.202467-14.20349l0-14.316054 170.44802 0 0 14.316054c0 7.843642 6.359848 14.20349 14.205537 14.20349 7.842619 0 14.202467-6.359848 14.202467-14.20349l0-14.316054 26.752294 0c16.604166 0 30.064736-13.458523 30.064736-30.064736l-0.002047-62.777789C698.766684 635.298164 710.198038 616.95233 710.198038 595.926458z"  /><path d="M166.284187 571.787688l-30.129204-30.127158 30.129204-30.132274c5.54939-5.547343 5.54939-14.541181 0-20.088524-5.547343-5.54939-14.539134-5.54939-20.086477 0l-40.175001 40.175001c-5.547343 5.547343-5.547343 14.539134 0 20.086477l40.175001 40.172955c5.547343 5.54939 14.539134 5.54939 20.086477 0C171.83153 586.330916 171.83153 577.335031 166.284187 571.787688z"  /><path d="M856.399841 571.787688l30.130228-30.127158-30.130228-30.132274c-5.548366-5.547343-5.548366-14.541181 0-20.088524 5.547343-5.54939 14.540158-5.54939 20.087501 0l40.175001 40.175001c5.547343 5.547343 5.547343 14.539134 0 20.086477l-40.175001 40.172955c-5.547343 5.54939-14.540158 5.54939-20.087501 0C850.852498 586.330916 850.852498 577.335031 856.399841 571.787688z"  /></svg>