<?xml version="1.0" standalone="no"?><!DOCTYPE svg PUBLIC "-//W3C//DTD SVG 1.1//EN" "http://www.w3.org/Graphics/SVG/1.1/DTD/svg11.dtd"><svg class="icon" width="200px" height="200.00px" viewBox="0 0 1024 1024" version="1.1" xmlns="http://www.w3.org/2000/svg"><path d="M336.8 247.9c0-0.9-0.8-1.7-1.7-1.7h-44.6c-0.9 0-1.7 0.8-1.7 1.7v44.6c0 0.9 0.8 1.7 1.7 1.7h44.6c0.9 0 1.7-0.8 1.7-1.7v-44.6zM640.3 247.9c0-0.9-0.8-1.7-1.7-1.7H390.1c-0.9 0-1.7 0.8-1.7 1.7v44.6c0 0.9 0.8 1.7 1.7 1.7h248.5c0.9 0 1.7-0.8 1.7-1.7v-44.6zM335.8 358.7c0-0.9-0.8-1.7-1.7-1.7h-44.6c-0.9 0-1.7 0.8-1.7 1.7v44.6c0 0.9 0.8 1.7 1.7 1.7h44.6c0.9 0 1.7-0.8 1.7-1.7v-44.6zM639.6 358.7c0-0.9-0.8-1.7-1.7-1.7H389.4c-0.9 0-1.7 0.8-1.7 1.7v44.6c0 0.9 0.8 1.7 1.7 1.7h248.5c0.9 0 1.7-0.8 1.7-1.7v-44.6zM334.1 468.1h-44.6c-0.9 0-1.7 0.8-1.7 1.7v44.6c0 0.9 0.8 1.7 1.7 1.7h44.6c0.9 0 1.7-0.8 1.7-1.7v-44.6c0-1-0.8-1.7-1.7-1.7zM637.9 468.1H389.4c-0.9 0-1.7 0.8-1.7 1.7v44.6c0 0.9 0.8 1.7 1.7 1.7h248.5c0.9 0 1.7-0.8 1.7-1.7v-44.6c0-1-0.7-1.7-1.7-1.7z"  /><path d="M197.1 147h540.6c0.9 0 1.7 0.8 1.7 1.7v422.6c0 0.9 0.8 1.7 1.7 1.7h44.6c0.9 0 1.7-0.8 1.7-1.7V100.7c0-0.9-0.8-1.7-1.7-1.7H149.1c-0.9 0-1.7 0.8-1.7 1.7v822.6c0 0.9 0.8 1.7 1.7 1.7h477.6c0.9 0 1.7-0.8 1.7-1.7v-44.6c0-0.9-0.8-1.7-1.7-1.7H197.1c-0.9 0-1.7-0.8-1.7-1.7V148.7c0-0.9 0.8-1.7 1.7-1.7z"  /><path d="M625.3 772l31.6 31.6c0.7 0.7 1.7 0.7 2.4 0L840 622.8c0.7-0.7 0.7-1.7 0-2.4l-31.6-31.6c-0.7-0.7-1.7-0.7-2.4 0L625.3 769.6c-0.6 0.7-0.6 1.8 0 2.4zM842.2 552.8l-28 28c-0.7 0.7-0.7 1.7 0 2.4l31.6 31.6c0.7 0.7 1.7 0.7 2.4 0l28-28c0.7-0.7 0.7-1.7 0-2.4l-31.6-31.6c-0.7-0.6-1.8-0.6-2.4 0zM604.8 826.3l45.8-15.7c1.2-0.4 1.5-1.9 0.6-2.8l-30.1-30.1c-0.9-0.9-2.4-0.5-2.8 0.6l-15.7 45.8c-0.4 1.4 0.8 2.6 2.2 2.2z"  /></svg>