<?xml version="1.0" standalone="no"?><!DOCTYPE svg PUBLIC "-//W3C//DTD SVG 1.1//EN" "http://www.w3.org/Graphics/SVG/1.1/DTD/svg11.dtd"><svg class="icon" width="200px" height="200.00px" viewBox="0 0 1024 1024" version="1.1" xmlns="http://www.w3.org/2000/svg"><path d="M331.875902 515.896195c-68.333268 0-132.570537-26.574049-180.923317-74.926829s-74.926829-112.590049-74.926829-180.923317c0-68.333268 26.574049-132.570537 74.926829-180.923317s112.590049-74.926829 180.923317-74.92683 132.570537 26.574049 180.923318 74.92683 74.926829 112.590049 74.926829 180.923317c0 68.333268-26.574049 132.570537-74.926829 180.923317s-112.590049 74.926829-180.923318 74.926829z m0-447.762732c-105.796683 0-191.912585 86.115902-191.912585 191.912586 0 105.796683 86.115902 191.912585 191.912585 191.912585s191.912585-86.115902 191.912586-191.912585c0-105.896585-86.115902-191.912585-191.912586-191.912586z"  /><path d="M33.467317 742.474927c-3.396683 0-6.793366-0.499512-10.190049-1.698342C6.493659 735.182049-2.497561 717.099707 3.096976 700.316098c11.588683-34.466341 28.372293-66.734829 49.951219-96.106147 21.379122-28.971707 46.854244-54.446829 75.925854-75.726049 60.440976-44.156878 131.971122-67.534049 207.097756-67.534048 58.942439 0 117.285463 14.885463 168.735219 43.157853 15.484878 8.491707 21.179317 27.972683 12.68761 43.457561s-27.972683 21.179317-43.357658 12.68761c-41.959024-23.077463-89.71239-35.265561-137.965269-35.265561-123.579317 0-233.07239 78.723122-272.334048 195.808781-4.595512 13.287024-16.983415 21.678829-30.370342 21.678829zM927.194537 1024H414.595122c-52.84839 0-95.906341-43.057951-95.906342-95.906341V704.312195c0-52.84839 43.057951-95.906341 95.906342-95.906341h512.599415c52.84839 0 95.906341 43.057951 95.906341 95.906341v223.781464c0 52.84839-42.958049 95.906341-95.906341 95.906341zM414.595122 672.343415c-17.582829 0-31.96878 14.385951-31.968781 31.96878v223.781464c0 17.582829 14.385951 31.96878 31.968781 31.96878h512.599415c17.582829 0 31.96878-14.385951 31.96878-31.96878V704.312195c0-17.582829-14.385951-31.96878-31.96878-31.96878H414.595122z"  /></svg>