<?xml version="1.0" standalone="no"?><!DOCTYPE svg PUBLIC "-//W3C//DTD SVG 1.1//EN" "http://www.w3.org/Graphics/SVG/1.1/DTD/svg11.dtd"><svg class="icon" width="200px" height="200.00px" viewBox="0 0 1024 1024" version="1.1" xmlns="http://www.w3.org/2000/svg"><path d="M736.1 232v560H120V232h616.1m0-56H120c-30.9 0-56 25.1-56 56v560c0 30.9 25.1 56 56 56h616.1c30.9 0 56-25.1 56-56V232c0-30.9-25.1-56-56-56z"  /><path d="M904 348.1v327.8l-111.9-52.5V400.6L904 348.1m28-72.1c-3.9 0-8 0.8-11.9 2.7l-184 86.3v294l184 86.3c3.9 1.8 8 2.7 11.9 2.7 14.7 0 28-11.9 28-28V304.1c0-16.2-13.3-28.1-28-28.1zM344 456c30.9 0 56 25.1 56 56s-25.1 56-56 56-56-25.1-56-56 25.1-56 56-56m0-56c-61.9 0-112 50.1-112 112s50.1 112 112 112 112-50.1 112-112-50.1-112-112-112z"  /></svg>