<?xml version="1.0" standalone="no"?><!DOCTYPE svg PUBLIC "-//W3C//DTD SVG 1.1//EN" "http://www.w3.org/Graphics/SVG/1.1/DTD/svg11.dtd"><svg class="icon" width="200px" height="200.00px" viewBox="0 0 1024 1024" version="1.1" xmlns="http://www.w3.org/2000/svg"><path d="M870.16 385.34A438.68 438.68 0 0 0 467.79 118 25.69 25.69 0 0 0 442 143.69V209a349 349 0 0 0-286.87 193.2c-29.61 59.74-41.36 126.91-34 194.24 8.13 73.94 38.25 145.6 89.54 213a25.82 25.82 0 0 0 4.87 4.87c67.38 51.26 139 81.38 213 89.51a358.76 358.76 0 0 0 39.24 2.18 348.85 348.85 0 0 0 348.4-325h63.13A25.69 25.69 0 0 0 905 555.21a436.25 436.25 0 0 0-34.84-169.87zM601.49 826.86c-110.89 55-239.92 37.1-354.43-48.92C161 663.42 143.18 534.4 198.14 423.51 245.47 328 337.37 266 442 257.1v298.22A25.71 25.71 0 0 0 467.68 581h300.38c-8.24 105.45-70.48 198.23-166.57 245.86zM490 533V166.73c196.11 12 354.27 170.17 366.27 366.27z" /></svg>