<?xml version="1.0" standalone="no"?><!DOCTYPE svg PUBLIC "-//W3C//DTD SVG 1.1//EN" "http://www.w3.org/Graphics/SVG/1.1/DTD/svg11.dtd"><svg class="icon" width="200px" height="200.00px" viewBox="0 0 1024 1024" version="1.1" xmlns="http://www.w3.org/2000/svg"><path d="M516.236606 1004.172888c-273.880218-0.347934-491.968221-216.317634-492.085904-487.301814C24.033019 245.027292 244.019307 28.034258 518.477709 29.267376c274.079768 1.233118 491.620287 217.781002 490.806736 488.575866C1008.476011 788.960456 789.93774 1004.520821 516.236606 1004.172888zM515.648189 941.401529c235.546095 0.240484 430.24578-191.634797 430.501614-424.254155 0.255834-231.411822-193.809384-424.581622-427.083676-425.118873-235.996362-0.542367-430.813731 190.304462-431.780782 422.98522C86.32341 747.510278 280.869595 941.166162 515.648189 941.401529z"  /><path d="M460.802558 282.256213c30.909829 0 59.435287 0 90.7084 0-5.781842 122.825763-11.52275 244.699825-17.325059 367.940039-18.686094 0-34.496617 0-53.945096 0C473.763094 527.549573 467.326318 405.690861 460.802558 282.256213z"  /><path d="M538.785789 723.165143c0 27.04674 0 53.858112 0 82.634288-20.29273 0-40.90781 0-63.252326 0 0-27.543057 0-54.262329 0-82.634288C496.629511 723.165143 516.61524 723.165143 538.785789 723.165143z"  /></svg>