<?xml version="1.0" standalone="no"?><!DOCTYPE svg PUBLIC "-//W3C//DTD SVG 1.1//EN" "http://www.w3.org/Graphics/SVG/1.1/DTD/svg11.dtd"><svg class="icon" width="200px" height="200.00px" viewBox="0 0 1024 1024" version="1.1" xmlns="http://www.w3.org/2000/svg"><path d="M844.6 247.2H259.1c-30.7 0-55.7-25-55.7-55.7 0-30.7 25-55.7 55.7-55.7h533.4c13.3 0 24-10.7 24-24s-10.7-24-24-24H259.1c-57.2 0-103.7 46.5-103.7 103.7v665c0 44 35.8 79.8 79.8 79.8H843c14.1 0 25.6-11.5 25.6-25.6V271.2c0-13.3-10.8-24-24-24z m-24 641.1H235.2c-17.5 0-31.8-14.3-31.8-31.8V278.9c16.1 10.3 35.2 16.3 55.7 16.3h561.5v593.1z"  /><path d="M790.5 167.5H254.4c-13.3 0-24 10.7-24 24s10.7 24 24 24h536.1c13.3 0 24-10.7 24-24s-10.8-24-24-24zM338.4 425.1H383c0.9 0 1.7-0.8 1.7-1.7v-44.6c0-0.9-0.8-1.7-1.7-1.7h-44.6c-0.9 0-1.7 0.8-1.7 1.7v44.6c0 0.9 0.8 1.7 1.7 1.7zM438.1 425.1h248.5c0.9 0 1.7-0.8 1.7-1.7v-44.6c0-0.9-0.8-1.7-1.7-1.7H438.1c-0.9 0-1.7 0.8-1.7 1.7v44.6c0 0.9 0.8 1.7 1.7 1.7zM337.4 535.9H382c0.9 0 1.7-0.8 1.7-1.7v-44.6c0-0.9-0.8-1.7-1.7-1.7h-44.6c-0.9 0-1.7 0.8-1.7 1.7v44.6c0 1 0.8 1.7 1.7 1.7zM437.4 535.9h248.5c0.9 0 1.7-0.8 1.7-1.7v-44.6c0-0.9-0.8-1.7-1.7-1.7H437.4c-0.9 0-1.7 0.8-1.7 1.7v44.6c0 1 0.8 1.7 1.7 1.7zM337.4 646.9H382c0.9 0 1.7-0.8 1.7-1.7v-44.6c0-0.9-0.8-1.7-1.7-1.7h-44.6c-0.9 0-1.7 0.8-1.7 1.7v44.6c0 1 0.8 1.7 1.7 1.7zM437.4 646.9h248.5c0.9 0 1.7-0.8 1.7-1.7v-44.6c0-0.9-0.8-1.7-1.7-1.7H437.4c-0.9 0-1.7 0.8-1.7 1.7v44.6c0 1 0.8 1.7 1.7 1.7z"  /></svg>