<?xml version="1.0" standalone="no"?><!DOCTYPE svg PUBLIC "-//W3C//DTD SVG 1.1//EN" "http://www.w3.org/Graphics/SVG/1.1/DTD/svg11.dtd"><svg class="icon" width="200px" height="200.00px" viewBox="0 0 1024 1024" version="1.1" xmlns="http://www.w3.org/2000/svg"><path d="M991.2 1023H37c-17.7 0-32-14.3-32-32s14.3-32 32-32h954.1c17.7 0 32 14.3 32 32s-14.3 32-31.9 32zM991.2 514.1H37c-17.7 0-32-14.3-32-32s14.3-32 32-32h954.1c17.7 0 32 14.3 32 32s-14.3 32-31.9 32zM165 894.6c-17.7 0-32-14.3-32-32V610c0-17.7 14.3-32 32-32s32 14.3 32 32v252.7c0 17.6-14.3 31.9-32 31.9zM510.5 894.6c-17.7 0-32-14.3-32-32V610c0-17.7 14.3-32 32-32s32 14.3 32 32v252.7c0 17.6-14.3 31.9-32 31.9zM863.6 894.6c-17.7 0-32-14.3-32-32V610c0-17.7 14.3-32 32-32s32 14.3 32 32v252.7c0 17.6-14.4 31.9-32 31.9zM928 382.7c-17.7 0-32-14.3-32-32 0-73.8-38.7-143.8-109-197.1-72.9-55.3-170.4-85.7-274.4-85.7-104 0-201.5 30.4-274.4 85.7-70.3 53.3-109 123.3-109 197.1 0 17.7-14.3 32-32 32s-32-14.3-32-32c0-48 12.3-94.5 36.7-138.1 23.1-41.4 55.9-78.4 97.6-110C283.5 39 394.7 3.9 512.6 3.9S741.7 39 825.7 102.6c41.7 31.6 74.5 68.6 97.6 110 24.4 43.6 36.7 90.1 36.7 138.1 0 17.7-14.3 32-32 32z" /></svg>