<?xml version="1.0" standalone="no"?><!DOCTYPE svg PUBLIC "-//W3C//DTD SVG 1.1//EN" "http://www.w3.org/Graphics/SVG/1.1/DTD/svg11.dtd"><svg class="icon" width="200px" height="200.00px" viewBox="0 0 1024 1024" version="1.1" xmlns="http://www.w3.org/2000/svg"><path d="M700.064 979.008a697.792 697.792 0 0 0-40.992-24.064v-147.776h-296.352v150.08l-62.624 33.28a8.32 8.32 0 0 1-1.152 3.392 19.008 19.008 0 0 0-1.152 7.968c0 3.776 0.352 7.104 1.152 9.664 0.768 2.656 3.2 5.184 7.392 7.392a31.04 31.04 0 0 0 15.392 3.456h370.368a11.2 11.2 0 0 0 2.848-0.544c1.184-0.352 3.616-1.376 7.392-2.944 3.744-1.44 6.88-3.072 9.088-4.512 2.272-1.6 4.896-3.456 8-5.728 3.072-2.24 4.576-4.416 4.576-6.272a17.888 17.888 0 0 0-2.24-7.424c-3.744-3.776-10.976-9.088-21.696-15.968zM992.416 30.688c-20.16-19.488-43.904-29.184-71.232-29.184H100.608c-27.328 0-50.72 9.792-70.08 29.184a96.48 96.48 0 0 0-29.056 70.56V672c0 27.456 9.696 50.784 29.056 69.92a96.224 96.224 0 0 0 70.08 28.608h820.576c27.328 0 51.072-9.856 71.232-29.216 20.192-19.488 30.144-42.592 30.144-69.28V101.12c0-27.456-9.952-50.912-30.144-70.432z m-35.904 502.496c0 18.368-6.304 33.856-18.848 46.4-12.544 12.64-27.84 18.944-46.112 18.944H130.24c-18.208 0-33.6-6.304-46.144-18.944a63.264 63.264 0 0 1-18.784-46.4V132.032c0-18.368 6.272-33.984 18.784-46.976A61.6 61.6 0 0 1 130.24 65.6h761.28c18.272 0 33.6 6.496 46.112 19.456 12.544 12.992 18.848 28.64 18.848 46.976v401.152h0.032zM596.16 442.336H211.616a24.32 24.32 0 0 0-18.112 8.224 26.848 26.848 0 0 0-7.872 19.264c0 7.392 2.624 13.76 7.872 19.264s11.296 8.192 18.112 8.192H596.16a25.952 25.952 0 0 0 19.264-8.192 27.04 27.04 0 0 0 7.872-19.264 26.976 26.976 0 0 0-7.872-19.264 26.048 26.048 0 0 0-19.264-8.224zM211.936 368.864h274.912a26.24 26.24 0 0 0 19.488-8.224c5.344-5.472 7.968-11.84 7.968-19.264s-2.72-13.824-7.968-19.296a26.432 26.432 0 0 0-19.488-8.192H211.936a25.312 25.312 0 0 0-18.336 8.192c-5.344 5.472-7.968 11.872-7.968 19.296s2.624 13.792 7.968 19.264c5.376 5.472 11.52 8.224 18.336 8.224z m-0.32-128.448h203.52a24.64 24.64 0 0 0 18.688-7.776 27.52 27.52 0 0 0 7.296-19.68 28.128 28.128 0 0 0-7.296-19.744 24.8 24.8 0 0 0-18.688-7.744h-203.52a25.28 25.28 0 0 0-18.112 7.744 26.496 26.496 0 0 0-7.872 19.744c0 7.968 2.624 14.464 7.872 19.68a24.576 24.576 0 0 0 18.112 7.776z" /></svg>