<?xml version="1.0" standalone="no"?><!DOCTYPE svg PUBLIC "-//W3C//DTD SVG 1.1//EN" "http://www.w3.org/Graphics/SVG/1.1/DTD/svg11.dtd"><svg class="icon" width="200px" height="200.00px" viewBox="0 0 1024 1024" version="1.1" xmlns="http://www.w3.org/2000/svg"><path d="M904 176v112H120V176h784m0-56H120c-30.9 0-56 25.1-56 56v112c0 30.9 25.1 56 56 56h784c30.9 0 56-25.1 56-56V176c0-30.9-25.1-56-56-56z"  /><path d="M820 232m-28 0a28 28 0 1 0 56 0 28 28 0 1 0-56 0Z"  /><path d="M708 232m-28 0a28 28 0 1 0 56 0 28 28 0 1 0-56 0Z"  /><path d="M904 456v112H120V456h784m0-56H120c-30.9 0-56 25.1-56 56v112c0 30.9 25.1 56 56 56h784c30.9 0 56-25.1 56-56V456c0-30.9-25.1-56-56-56z"  /><path d="M820 512m-28 0a28 28 0 1 0 56 0 28 28 0 1 0-56 0Z"  /><path d="M596 232m-28 0a28 28 0 1 0 56 0 28 28 0 1 0-56 0Z"  /><path d="M596 792m-28 0a28 28 0 1 0 56 0 28 28 0 1 0-56 0Z"  /><path d="M708 512m-28 0a28 28 0 1 0 56 0 28 28 0 1 0-56 0Z"  /><path d="M904 736v112H120V736h784m0-56H120c-30.9 0-56 25.1-56 56v112c0 30.9 25.1 56 56 56h784c30.9 0 56-25.1 56-56V736c0-30.9-25.1-56-56-56z"  /><path d="M820 792m-28 0a28 28 0 1 0 56 0 28 28 0 1 0-56 0Z"  /><path d="M708 792m-28 0a28 28 0 1 0 56 0 28 28 0 1 0-56 0Z"  /></svg>