<?xml version="1.0" standalone="no"?><!DOCTYPE svg PUBLIC "-//W3C//DTD SVG 1.1//EN" "http://www.w3.org/Graphics/SVG/1.1/DTD/svg11.dtd"><svg class="icon" width="200px" height="200.00px" viewBox="0 0 1024 1024" version="1.1" xmlns="http://www.w3.org/2000/svg"><path d="M956.8 796h-71.6c-0.9 0-1.7-0.8-1.7-1.7V216.7c0-0.9-0.8-1.7-1.7-1.7H718.2c-0.9 0-1.7 0.8-1.7 1.7v577.6c0 0.9-0.8 1.7-1.7 1.7h-82.1c-0.9 0-1.7-0.8-1.7-1.7V392.7c0-0.9-0.8-1.7-1.7-1.7H465.7c-0.9 0-1.7 0.8-1.7 1.7v401.6c0 0.9-0.8 1.7-1.7 1.7h-82.1c-0.9 0-1.7-0.8-1.7-1.7V462.7c0-0.9-0.8-1.7-1.7-1.7H213.2c-0.9 0-1.7 0.8-1.7 1.7v331.6c0 0.9-0.8 1.7-1.7 1.7h-94.6c-0.9 0-1.7-0.8-1.7-1.7V181.7c0-0.9-0.8-1.7-1.7-1.7H67.2c-0.9 0-1.7 0.8-1.7 1.7v660.6c0 0.9 0.8 1.7 1.7 1.7h889.6c0.9 0 1.7-0.8 1.7-1.7v-44.6c0-0.9-0.8-1.7-1.7-1.7zM766.2 263h67.6c0.9 0 1.7 0.8 1.7 1.7v520.6c0 0.9-0.8 1.7-1.7 1.7h-67.6c-0.9 0-1.7-0.8-1.7-1.7V264.7c0-0.9 0.8-1.7 1.7-1.7zM513.7 439h67.6c0.9 0 1.7 0.8 1.7 1.7v344.6c0 0.9-0.8 1.7-1.7 1.7h-67.6c-0.9 0-1.7-0.8-1.7-1.7V440.7c0-0.9 0.8-1.7 1.7-1.7z m-252.5 70h67.6c0.9 0 1.7 0.8 1.7 1.7v274.6c0 0.9-0.8 1.7-1.7 1.7h-67.6c-0.9 0-1.7-0.8-1.7-1.7V510.7c0-0.9 0.8-1.7 1.7-1.7z" /></svg>